<!DOCTYPE svg PUBLIC "-//W3C//DTD SVG 1.1//EN" "http://www.w3.org/Graphics/SVG/1.1/DTD/svg11.dtd">

<!-- Uploaded to: SVG Repo, www.svgrepo.com, Transformed by: SVG Repo Mixer Tools -->
<svg fill="#898483" width="64px" height="64px" viewBox="0 0 36 36" version="1.1"
    preserveAspectRatio="xMidYMid meet" xmlns="http://www.w3.org/2000/svg"
    xmlns:xlink="http://www.w3.org/1999/xlink">

    <g id="SVGRepo_bgCarrier" stroke-width="0" />

    <g id="SVGRepo_tracerCarrier" stroke-linecap="round" stroke-linejoin="round" stroke="#CCCCCC"
        stroke-width="0.144" />

    <g id="SVGRepo_iconCarrier">
        <title>clock-line</title>
        <path
            d="M18,2A16,16,0,1,0,34,18,16,16,0,0,0,18,2Zm0,30A14,14,0,1,1,32,18,14,14,0,0,1,18,32Z"
            class="clr-i-outline clr-i-outline-path-1" />

        <path d="M18.92,18.4V10.75a1,1,0,0,0-2,0v8.72l5.9,4a1,1,0,1,0,1.11-1.66Z"
            class="clr-i-outline clr-i-outline-path-2" />

        <path
            d="M8,17.94A9.94,9.94,0,0,1,23.41,9.59l.85-1.36a11.55,11.55,0,1,0-8.53,21L16,27.7A10,10,0,0,1,8,17.94Z"
            class="clr-i-outline clr-i-outline-path-3" />
        <rect x="0" y="0" width="36" height="36" fill-opacity="0" />
    </g>

</svg>