<svg width="24" height="25" viewBox="0 0 24 25" fill="none" xmlns="http://www.w3.org/2000/svg">
<path d="M22 9.5V7.5C22 6.96957 21.7893 6.46086 21.4142 6.08579C21.0391 5.71071 20.5304 5.5 20 5.5H4C3.46957 5.5 2.96086 5.71071 2.58579 6.08579C2.21071 6.46086 2 6.96957 2 7.5V17.5C2 18.0304 2.21071 18.5391 2.58579 18.9142C2.96086 19.2893 3.46957 19.5 4 19.5H12M22 9.5H6M22 9.5V11.5" stroke="black" stroke-width="1.5" stroke-linecap="round" stroke-linejoin="round"/>
<path d="M18.992 14.625L21.548 15.274C21.814 15.342 22.001 15.584 21.993 15.858C21.821 21.616 18.5 22.5 18.5 22.5C18.5 22.5 15.179 21.616 15.007 15.858C15.0042 15.7247 15.0467 15.5944 15.1275 15.4883C15.2084 15.3823 15.3227 15.3067 15.452 15.274L18.008 14.625C18.331 14.543 18.669 14.543 18.992 14.625Z" stroke="black" stroke-width="1.5" stroke-linecap="round" stroke-linejoin="round"/>
</svg>
