<svg width="95" height="64" viewBox="0 0 95 64" fill="none" xmlns="http://www.w3.org/2000/svg">
<path d="M69.734 6.9198H25.266C11.3697 6.9198 0 18.213 0 32.0159C0 45.8187 11.3697 57.1119 25.266 57.1119H69.734C83.6303 57.1119 95 45.8187 95 32.0159C95 18.213 83.6303 6.9198 69.734 6.9198Z" fill="white"/>
<path d="M69.734 8.95258C72.8544 8.95258 75.8863 9.56743 78.7414 10.772C81.508 11.939 83.984 13.6079 86.1317 15.7285C88.2666 17.8491 89.9468 20.3211 91.1217 23.0691C92.3344 25.905 92.9535 28.9165 92.9535 32.0159C92.9535 35.1152 92.3344 38.1267 91.1217 40.9626C89.9468 43.7106 88.2666 46.17 86.1317 48.3032C83.9967 50.4238 81.508 52.0927 78.7414 53.2597C75.8863 54.4643 72.8544 55.0791 69.734 55.0791H25.266C22.1456 55.0791 19.1137 54.4643 16.2586 53.2597C13.492 52.0927 11.016 50.4238 8.86835 48.3032C6.73338 46.1826 5.05319 43.7106 3.87832 40.9626C2.66556 38.1267 2.04654 35.1152 2.04654 32.0159C2.04654 28.9165 2.66556 25.905 3.87832 23.0691C5.05319 20.3211 6.73338 17.8617 8.86835 15.7285C11.0033 13.6079 13.492 11.939 16.2586 10.772C19.1137 9.56743 22.1456 8.95258 25.266 8.95258H69.734ZM69.734 6.9198H25.266C11.3697 6.9198 0 18.213 0 32.0159C0 45.8187 11.3697 57.1119 25.266 57.1119H69.734C83.6303 57.1119 95 45.8187 95 32.0159C95 18.213 83.6303 6.9198 69.734 6.9198Z" fill="#3C4043"/>
<path d="M45.4037 33.7977V41.3893H42.9782V22.6425H49.4084C51.038 22.6425 52.4277 23.1821 53.5646 24.2612C54.7269 25.3403 55.308 26.6579 55.308 28.2138C55.308 29.8074 54.7269 31.125 53.5646 32.1916C52.4403 33.2582 51.0507 33.7852 49.4084 33.7852H45.4037V33.7977ZM45.4037 24.9514V31.4889H49.4589C50.419 31.4889 51.2275 31.1626 51.8592 30.5227C52.5035 29.8827 52.8319 29.1048 52.8319 28.2264C52.8319 27.3606 52.5035 26.5951 51.8592 25.9552C51.2275 25.2902 50.4317 24.9639 49.4589 24.9639H45.4037V24.9514Z" fill="#3C4043"/>
<path d="M61.6498 28.1385C63.4436 28.1385 64.8585 28.6154 65.8944 29.569C66.9304 30.5227 67.4483 31.8277 67.4483 33.484V41.3893H65.1365V39.6075H65.0354C64.0374 41.0756 62.6983 41.8034 61.0307 41.8034C59.6032 41.8034 58.4157 41.3893 57.4556 40.5486C56.4955 39.7078 56.0154 38.6663 56.0154 37.4115C56.0154 36.0815 56.5208 35.0274 57.5314 34.2494C58.542 33.4589 59.8938 33.0699 61.574 33.0699C63.0141 33.0699 64.2016 33.3334 65.1238 33.8605V33.3083C65.1238 32.4676 64.7954 31.7649 64.1258 31.1752C63.4563 30.5854 62.673 30.2968 61.7761 30.2968C60.4244 30.2968 59.3506 30.8615 58.5673 32.0033L56.4323 30.6733C57.6072 28.9793 59.3506 28.1385 61.6498 28.1385ZM58.5168 37.4492C58.5168 38.0766 58.7821 38.6036 59.3253 39.0177C59.8559 39.4318 60.4875 39.6451 61.2076 39.6451C62.2309 39.6451 63.1405 39.2687 63.9363 38.5158C64.7322 37.7629 65.1365 36.8845 65.1365 35.8681C64.3785 35.2784 63.3299 34.9772 61.9782 34.9772C60.9928 34.9772 60.1717 35.2156 59.5148 35.6799C58.8452 36.1693 58.5168 36.759 58.5168 37.4492Z" fill="#3C4043"/>
<path d="M80.6371 28.5527L72.552 47.0234H70.0507L73.0573 40.5611L67.7262 28.5527H70.3665L74.2069 37.7629H74.2574L77.9968 28.5527H80.6371Z" fill="#3C4043"/>
<path d="M35.7559 32.2668C35.7559 31.4813 35.6852 30.7297 35.5538 30.0069H25.3868V34.1477L31.2422 34.149C31.0047 35.5268 30.2404 36.7013 29.0693 37.4843V40.1708H32.5547C34.5899 38.2999 35.7559 35.5343 35.7559 32.2668Z" fill="#4285F4"/>
<path d="M29.0706 37.4843C28.1004 38.1343 26.851 38.5145 25.3893 38.5145C22.5659 38.5145 20.1707 36.6248 19.3129 34.0775H15.7175V36.8481C17.4988 40.3591 21.1598 42.7683 25.3893 42.7683C28.3126 42.7683 30.7685 41.8134 32.556 40.1696L29.0706 37.4843Z" fill="#34A853"/>
<path d="M18.9743 32.0222C18.9743 31.3069 19.0943 30.6155 19.3129 29.9656V27.1949H15.7175C14.981 28.6468 14.5667 30.2855 14.5667 32.0222C14.5667 33.7588 14.9823 35.3976 15.7175 36.8494L19.3129 34.0788C19.0943 33.4288 18.9743 32.7374 18.9743 32.0222Z" fill="#FABB05"/>
<path d="M25.3893 25.5286C26.9849 25.5286 28.4137 26.0744 29.5418 27.141L32.6306 24.0755C30.7546 22.3401 28.3088 21.2748 25.3893 21.2748C21.1611 21.2748 17.4988 23.684 15.7175 27.1949L19.3129 29.9655C20.1707 27.4183 22.5659 25.5286 25.3893 25.5286Z" fill="#E94235"/>
</svg>
